<mxfile host="65bd71144e">
    <diagram id="75FGouVWA-5HJnq9hStm" name="Page-1">
        <mxGraphModel dx="966" dy="465" grid="1" gridSize="10" guides="1" tooltips="1" connect="1" arrows="1" fold="1" page="1" pageScale="1" pageWidth="1169" pageHeight="827" math="0" shadow="0">
            <root>
                <mxCell id="0"/>
                <mxCell id="1" parent="0"/>
                <mxCell id="2" value="&lt;font style=&quot;font-size: 24px;&quot;&gt;HALF ADDER&lt;/font&gt;" style="rounded=0;whiteSpace=wrap;html=1;fillColor=#fff2cc;strokeColor=#d6b656;" parent="1" vertex="1">
                    <mxGeometry x="300" y="170" width="250" height="140" as="geometry"/>
                </mxCell>
                <mxCell id="3" value="a" style="text;html=1;align=center;verticalAlign=middle;whiteSpace=wrap;rounded=0;" parent="1" vertex="1">
                    <mxGeometry x="190" y="195" width="60" height="30" as="geometry"/>
                </mxCell>
                <mxCell id="4" value="b" style="text;html=1;align=center;verticalAlign=middle;whiteSpace=wrap;rounded=0;" parent="1" vertex="1">
                    <mxGeometry x="190" y="255" width="60" height="30" as="geometry"/>
                </mxCell>
                <mxCell id="6" value="" style="endArrow=classic;html=1;exitX=1;exitY=0.5;exitDx=0;exitDy=0;" parent="1" source="3" edge="1">
                    <mxGeometry width="50" height="50" relative="1" as="geometry">
                        <mxPoint x="210" y="250" as="sourcePoint"/>
                        <mxPoint x="290" y="210" as="targetPoint"/>
                    </mxGeometry>
                </mxCell>
                <mxCell id="7" value="" style="endArrow=classic;html=1;exitX=1;exitY=0.5;exitDx=0;exitDy=0;" parent="1" edge="1">
                    <mxGeometry width="50" height="50" relative="1" as="geometry">
                        <mxPoint x="250" y="269.8" as="sourcePoint"/>
                        <mxPoint x="290" y="269.8" as="targetPoint"/>
                    </mxGeometry>
                </mxCell>
                <mxCell id="8" value="sum" style="text;html=1;align=center;verticalAlign=middle;whiteSpace=wrap;rounded=0;" parent="1" vertex="1">
                    <mxGeometry x="600" y="195" width="60" height="30" as="geometry"/>
                </mxCell>
                <mxCell id="9" value="cout" style="text;html=1;align=center;verticalAlign=middle;whiteSpace=wrap;rounded=0;" parent="1" vertex="1">
                    <mxGeometry x="600" y="255" width="60" height="30" as="geometry"/>
                </mxCell>
                <mxCell id="10" value="" style="endArrow=classic;html=1;exitX=1;exitY=0.5;exitDx=0;exitDy=0;" parent="1" edge="1">
                    <mxGeometry width="50" height="50" relative="1" as="geometry">
                        <mxPoint x="560" y="209.81" as="sourcePoint"/>
                        <mxPoint x="600" y="209.81" as="targetPoint"/>
                    </mxGeometry>
                </mxCell>
                <mxCell id="11" value="" style="endArrow=classic;html=1;exitX=1;exitY=0.5;exitDx=0;exitDy=0;" parent="1" edge="1">
                    <mxGeometry width="50" height="50" relative="1" as="geometry">
                        <mxPoint x="560" y="269.61" as="sourcePoint"/>
                        <mxPoint x="600" y="269.61" as="targetPoint"/>
                    </mxGeometry>
                </mxCell>
                <mxCell id="13" value="&lt;p style=&quot;box-sizing: border-box; border: 0px; font-size: 15px; font-style: normal; font-weight: 400; margin: 0px 0px 0.5em; outline: 0px; padding: 0px; vertical-align: baseline; color: rgb(34, 50, 61); font-family: &amp;quot;open sans&amp;quot;, sans-serif; font-variant-ligatures: normal; font-variant-caps: normal; letter-spacing: normal; orphans: 2; text-align: start; text-indent: 0px; text-transform: none; widows: 2; word-spacing: 0px; -webkit-text-stroke-width: 0px; white-space: normal; background-color: rgb(255, 255, 255); text-decoration-thickness: initial; text-decoration-style: initial; text-decoration-color: initial;&quot;&gt;&lt;span style=&quot;box-sizing: border-box; font-style: inherit;&quot;&gt;sum = a ^ b&lt;/span&gt;&lt;/p&gt;&lt;p style=&quot;box-sizing: border-box; border: 0px; font-size: 15px; font-style: normal; font-weight: 400; margin: 0px 0px 0.5em; outline: 0px; padding: 0px; vertical-align: baseline; color: rgb(34, 50, 61); font-family: &amp;quot;open sans&amp;quot;, sans-serif; font-variant-ligatures: normal; font-variant-caps: normal; letter-spacing: normal; orphans: 2; text-align: start; text-indent: 0px; text-transform: none; widows: 2; word-spacing: 0px; -webkit-text-stroke-width: 0px; white-space: normal; background-color: rgb(255, 255, 255); text-decoration-thickness: initial; text-decoration-style: initial; text-decoration-color: initial;&quot;&gt;&lt;span style=&quot;box-sizing: border-box; font-style: inherit;&quot;&gt;cout = a Â· b&lt;/span&gt;&lt;/p&gt;" style="text;whiteSpace=wrap;html=1;" parent="1" vertex="1">
                    <mxGeometry x="400" y="340" width="110" height="70" as="geometry"/>
                </mxCell>
                <mxCell id="15" value="" style="shape=image;verticalLabelPosition=bottom;labelBackgroundColor=default;verticalAlign=top;aspect=fixed;imageAspect=0;image=data:image/png,iVBORw0KGgoAAAANSUhEUgAAAvAAAAElCAYAAACCvdZ7AAAAAXNSR0IArs4c6QAAAARnQU1BAACxjwv8YQUAAAAJcEhZcwAADsMAAA7DAcdvqGQAACTWSURBVHhe7d1PTFvZ3f/xT55FeFYUKlHJDWEgMBJKs4ge3HkaV92QVEqlkKECkaphGbIYpROhIVlkE6aLLMJEUX4PilQYaTakalCiJyRIgzRTb0YyUxWqLJgRUkigxNRSkRrK6iGb/Bb8O/eA8TX42vf4vl+SpTnXdibhfjn++Nxzzzn0hz/84Z0AAAAAOOHQxeHvCPCIhAc9P9HF4e/sw0DZouYRNdQ8ouI/7AMAAAAAwosADwAAADiEAA8AAAA4hAAPAAAAOIQADwAAADiEAA8AAAA4hAAPAAAAOIQADwAAADiEAA8AAAA4hAAPAAAAOIQADwAAADiEAA8AAAA4hAAPAAAAOIQADwBARCXONGrk0nGNXDqu3mOH7acL71jt1v9v4Eyl/SxwYEWvaVMR65sADwBAFFXX6Nf1FRuNNS29eWu9IACvVjW98Z+x+hp1VVvPAwdRipo2FbG+CfAAAERQXWOlYpuNhWWNvvE+H4xV/WVh878rdL4l2FFKREtpatpUvPo+dHH4u3f2QRTaYXV1Nul81faRzEJa175eNV+EgD3o+YkuDn9nH8ZBVddooKNmu9PMZmVNGa3pr3/7p7599VaL9vMouHKo+bpjNfrZsUr9tKpCMbMPXVnTPxaW9fjlqhaL/iFdDirVe6lWLRut6eT3uvvKeskuCnI+PH3Gqu5/nlbKfs0+Fb3mqyvV1Vipn9ZXKFa1OfIrSWvKrNDfFdf+atqjEOczwPo2MQJfDNU/0E+Njk5FuLQCFE11Re7wLklVFYpVVep8a5NuXWqk/rG36hr1dh7XrdYana/3hkVJilVVqOVkrW51HNfAmRrVeZ9GLscqt4KOVpb1OFfQKeT5ePNv/XVls1GpX8eLPE+5EKor1dt5XCMdtTp/stIKe5Lk7e9645V7/0xwcPnWtKmQ57NI9U2AL4JEy26jkxX6aWMwJxUIvwqd7ziu3mP2cWD9RrCBjhq1WCExm1h9jW4FfMNYeTmsrv/a/nllFv6994hiwc/HW327sLbVitX/IHsYCqG6eKNGOmp9/zykjS83nTm+2OAA8qxpQ+HPZ3HqmwAfuEr9d719bF1QJxUonTU9ffy9uj+3H3O6kVzW9NaoxLqW1lolvIcQeZXqbTXmsUrKLCzrvqeu5nTjcVrTK9sfksiD56rwmv76cq8b/YI5H4svV5XZbFRV6meOXJGrizfq1klrdHZlVU+Tc7qRq8+rqtHvAhqNjby8anpbUOezGPVNgA+aeUlHq5o2vpUFdVKB8HmrxVfLuvtoTk89Ib5S/80oPAx18Rqjz5Qyz+d07etlpTzzqt9q8c2q7j56qe7HaU2vSJmV/zNfgD14bvTTmtJ7zFkP7Hx4phk4ckX6WO2OsDednFP3o7RGd8yL3uzzvteN5PJWmItV/afnVSiMfGp6S5Dnswj1TYAPWOKYcRlxYVV3p41vZQGdVCC83mr0z9udnyS1mL8jiLxaz9zTVf3vVI6RtDeruvvoe13L9TpsOKyfbS2zt/65tNcNdsGdj7dKG1/mw39Fev1KhGn9Jslc/05p8dWyrn2+PniR84sN9iG/ml4X9PkMvr4J8IHyTp+ZfrVqfSuTYid/xBQCRMubNf3DbFdVFLxjg6sOq9ach7qyprTRRCH8p454Vo/JFkAU+PlIvTJWYquqUK35ZMjYVyK0kM5zhZO3GvX1xQb5y6em1xXjfAZd3wT4AHkLZFV/eaUdNzcwhQAAsijIh95hdXWu74w4cum4BrLMWfWqVO/G60cuNaorax99WIkzu7+urrpSvZ3bO0KOXDqugc5G9R47vPsX1urDSpxp1IDx+pHOHKtd7IdnWqf/ucJSoc6H4c2acTUuzJ+F1giv1vR0OohloA+r7liNejutOtisnXil6nxNu81WlztrbKCzxhpE3Md7j9UYxxvzWJzA/H8d18ieNz7vIe+aLtL5DLi+CfCByX5Jx3NzA1MIEHUra75XC0C58152DuJDL+uc1awqdMQ+ZNgeod583WF1nWnUrY5atVhL0cWqKtTS2qRbnd6bt+vitRroaNJH9daSrJtLMxZw2dW6H3qDy95zhQM+H9bVuB//0M+XqxI49iPPPi6F3yBoMxw36VZrjVqqdi7Nu71MZ6N6fXwJ3VmXlert3FljsapK1Vq1lfd7X5nnscJ/pqn+gX5tzFLwM3K+m/xquhjnc0PA9U2AD4q19vu0eSnFmkaj+kqm0SA6PKMl+++0UZ48l50ltbSuj1o74YfrQee8Z3RvF1WV+qizRnUbI5C3TnpXedmpQuc7CrNik2dOu48pMcGej//TkjmlNO8vV8XhDYjW5/mBrW/0aIfjzY2DMtbKXetLGDblMcqtjStK+SyTaPLzXnP3UUk+97mxbzzNPXK+u3xrOtjzaQq2vgnwAfEW5ub0mU1vNfo3s2AKPKoBhJZ3rV5fN8UhWl7901qpaH3UeuBMjRI+QkEptZw0gs7KqmepxRtJ75VXVdXod51N+mhrBHJNT5Nz269/bC+7WogNYXbOac959SvQ82GN8If0fhjvjbxrWirkaK21/OH08/TG8oUvde3RS117tF0/ppb/yrYG+U4trdu7k2YWNv/879X9eE73n6/uOWLt973eL3p+FuiwZimsrOrbPf4e2eVf04GeT49g65sAHwhvYWae/3PnHdGvVjVtNPP5ZQScVF2prs4mz6XL6WQwW0zDZW81+ijt6R+1sTnQRx3HNdBZW4DgGKzMQlrdj9KepRYXX6V1zQphW7uZrizrxucvNWqsgLH4Zll3rZ/DwVey8N7s508Rz0eh59gXhBUQ/UzRyMebNf1jK7i/1N2p1V0D6OKrtG48P9gy1OtLgBp//pu3Sk0t++qDc77XyjQ5a9WapZDPxkte+dZ0wOdzLwWubwJ8EDzzq7JdFrIuOe3jlxEInwqdP92ogU7rcWlji2pjdPLp4+/zvOsf0bGquxvLtNliVZX6qOO4Rjpr1VWwqRyFsxl0drVjNHsjvD9azhJe7M+JwgYA/9PXgjsfac/mTxU75mOXXr4BMV+rurtHcDd575+r0JF8flYL6T1XTNmTr/eu6nEeXzDsWQqFuhKbu6aDPp9eQdY3AT4AnrXf97gslP8lJ8ABVRWK2Y9dXnOkscCra6DMrC/TtmP3w01VlTrf2qSRQo4AH1TOoGPfFLqq+1nD+zr7c+JAAaC6Qj+2j/nm4PkoN/u+KXJV97N9qczJ/3vtLxjZM032RT7ydqCadhsBvuC8a7/veVko30tOQNnYXl0jv5uxEDXm7ofZguNHHYVbpSVo3hE595Tb+YiEgwTkfN5r73OTLdPstcgHfCPAF1pe65Hal0f3vuQEhN+anho37nkfc7t86FeopZUPe+S2GRy7H6c1vSMEF26VlnDLc9pEgAp1Phb/Zb83bLwriRRF9WEljlWqK16r3jPmoybko83WPjdZMo09fca7yEfQins+g6xvAnyB+Z0+s8m+PHq+xef6qYBz3m6P3plzJVWh86e5iRs+vVnV3Ucvd67qokp9tN+NYLB/Bzwf9pJ+4XfAaUzZVFeq68zGxl8dTfqotVbnT1aqpd587DIdMWQWp5aNmQW7ZZoCTp8piIDO54Yg65sAX0jVNZ5NCdaXCdvlhj7z4VlSjzXhEQ2LUy91n6tPOIDdVnWh/yyd8j0f9n0Lhb8KUnesVgMdtbn3D3CCvSa8VQMlnz4T/PksFgJ8AXkvC63bcTPfjof1BtaER0TYV5+y3/AEZPEq7f0iGPBoGnIo0/Nh37fge6dRP6pr9LtW74ZGmYW0bjze3hNg+7FzOc8w8vbt3kzjyUkry3pc1Okz6wI9n0VEgC8Y67LQAbhaTABQbPaHMfZgrWJS6J0htY/zYW+qU7Q1ufPgXV1ll1HlA0i01HjC+9PHL9fXW3+z1/1zIWfvc7OVaaw9cvZa5MOvfdR0kOfTFmR9E+ALxd6U4Plu356zPaz1dQMsJgAoJ94PSOzNuoGvwDtD6qDnY2VNaftYGFirqxRmV1ztWLVOC8saLWDAKx1rTfjNTGPtOrv3Ih9+7aOmAzufORS4vgnwBeKdPpNvYVp3bhermIAS8tzwLekf/8rndwbQzgC068IB1pzXnAMkh9XVub19fHmx5/8Wmp/zYbJ2xVxZO/iIbCDeavRv1i66J4/muXrWYSXONGpkjxt7c29C5A7vKPf6NBrv9JlcteHXfmq6OOcz6PomwBdEpTpOGqMO+yhM+5JO1vVTgTJQd6xWH5kf9EVfSgyhdKxWI5ca1etrR8/DSpzxBu1sl+S90zr2GCCprlRvZ5Oxk3b58fwscu3sGtD52ObdFTPUAXaX+f3nOxr97T67UVcf5Zhmu/f0j50/31CzRrlbjtWqo9DTZzbkVdObinA+g65vAnwheNZ+32dh2pd0WJUDZahuY6m0W63eUYvpZLrES4khDNaXXKtQS2uTRi41auBMjRLVh63BjMOqO1az8QFqHs++HfuOAZKTTRo4Y+4EfHhrJZCWMg7v2rEu9d6LJgR1PrZYu2iG/Spc6mv7JtIKnW9t0kBnrbqOZfu5NGoka13ZK7bU7v5laSsw2k+EmTWzoL7S+BnkO0thb/nUtKnw59MScH0fujj83Tv7IPKTOHPc+MVa1f3P9xlGjtVqxAg2medzObblRj4e9PxEF4e/sw/joKy6zRd1HhzXar4u3qhb5tVM39Zv/ttr/nA+f3ZmYVl/rarZGomfTn6vu7teITqsLnPEfiGt7hzbznv/Hj4+L6zfr+x/F5+qazTQsX3j5F6/f/n8zLxynw/J/rf5fE8Owdd8pXo7fQY428qq7j+yzrd1PqT1qRabm2P9uKrSs1pdZkVb7eznLv+63HaQ99oq1Xtpl6sGB/ozd5FHTe9U4PNpCqC+TYzAH5h9E8oBNiWw7txmGg3K25qmk/l0tCh3i1OvdX9hzdoQaG+ZhWXd+Dz3B+P63gO5VkjZqMmv/20/UT7s7e73mLYR5PmQfR/MPqaelsaq7j6a0/3n9sZVe1nT9PO0buwW9t4s65q9CVZVxdbmTdvhfb02/ydnDYeJdYVhQ8HXfs+jpncq8Pk0BF3fBPiD8lwiWTtgYa7qL55tiMtjDV2UuTd5fMCvrCmzsKynyTl1f/5Sd18R3mF6q9TXL3Xt8+91I7mspwtryuyyLGFmZeMD9PH3uvb1su8pi6mvX+rG47SmV6ya3fzztmrS/41x5usyft5jXu7f5d+2g+f3a01LBw4BO6c2ZL+pN8jz4b3Bb19TT0vmrVJTaV37fE43ksuaXljbee7tvm5qNfu/79X6n3X/+eqOP2frZ7tLf/mPf3maHnnXpeEg77V514RXQPc75VPTuynw+ZSKUt9MoUFkBH9pFQgXah67sqYcHHhazn54/g6Fm15AzYeNNY2m0NNnNoWhpk0B1beJEXgAAKLEmnLw4x/ucuNkwIJZUhBhUxevMebAr+npdADhXeGoaVMx6psADwBApHinHMRO/ijPKQcHFcCOnAgha4f6gILsulLXtKk49U2ABwAgYhanlo1FE/wvvVcQgezIidA59iPPngpBBdlNJa1pU5HqmwAPAEDkeFcIabF2Rg5SosVYNnFhueBzgxEO3t22fewLcGClq2lTseqbAA8AQASlppe3V7ipr8lzK/n9MpdeDnBONEqruka/LtQS23koTU2bilffBHgAAKLozbL+9/nmvOEK/bSxCDf+GTuXZwIcnURp1VVXGJtTBRtkPUpR06Yi1jfLSCIyWF4MUUPNI2qoeUQFI/AAAACAQwjwAAAAgEMI8AAAAIBDCPAAAACAQwjwAAAAgEMI8AAAAIBDDkliGUkAAADAEYfGUxkCPCLhXCKm8dTWHm1A2aPmETXUPKKCKTQAAACAQwjwAAAAgEMI8AAAAIBDCPAAAACAQwjwAAAAgEMI8AAAAIBDCPAAAACAQwjwAAAAgEMI8AAAAIBDCPAAAACAQwjwAAAAgEMI8AAAAIBDCPAAAACAQwjwAAAAgEMI8AAAAIBDCPAAAACAQw6NpzLv7INAac0rM/mVHn/xTAszU5o1nmk+EVf96V51/LxVsVrjCR/OJWIaT2Xsw0AIUPOIGmoeUVPYmifAI1zSQ+rruukp7N3Fdfbq/9OVCw32E1nRsSOUqHlEDTWPqAmg5plCg/CYvKZzvgpckqY0cS+hvttJ+wnAHdQ8ooaaR9QEVPMEeIRDekh9n4x4DjVffaDh0YzGUxuP0ZT62+Oe18w+uajBSc8hwA3UPKKGmkfUBFjzBHiEwLzGfu/9dnr2TkafXbDmgtU2KH79mcbvdBsHpYkvhsQFU7iFmkfUUPOImmBrngCP0kt/pW9mtpvNV1O6csp8geXUgPrbjfbMTT3O8U0VCBVqHlFDzSNqAq55AjxKbuqP5jfUuH7x89w3b8R/+6majfbEN7nniwFhQc0jaqh5RE3QNU+AR4nNa2nOaJ5o0wd+llCqbVK92Z6b2/NSExAe1DyihppH1ARf8wR4lNi8XpuXmE7/UjHz6awadPSE0Zx5oSWjCYQXNY+ooeYRNcHXPAEepZWe04LRrK/LfYlpXYOONJntWS2lzTYQUtQ8ooaaR9QUoeYJ8Cit1y98ro2605H3vMsuAU6g5hE11Dyipgg1T4BHSWUWzRKP6+hRo5mXKb1+bR8DwoeaR9RQ84iaYtQ8AR7OitWZ92oD5Y+aR9RQ84gavzVPgAcAAAAcQoAHAAAAHEKAR4hkn+u1m8LNMQNKhZpH1FDziJpgap4Aj5LyO9cLKBfUPKKGmkfUFKPmCfAIlYXFeftQVkt/nzJazTriZ5czIGSoeUQNNY+oCaLmCfAoraPvqyDfU0+8ryP2MSCMqHlEDTWPqClCzRPgUVq1Tao3mrN//koZo51dUt8+MZpNTT63KQZKjJpH1FDziJoi1DwBHiXWoKMnjObMCy0Zzawmv9SE0Wx+z+82xUCpUfOIGmoeURN8zRPgUWIN+uC0uW3wiP70MNdcsXmNfTFitLv1mwvZixwIF2oeUUPNI2qCr3kCPEoudqFXZ4327L2PNZY2DlgyDz/W8IxxoP1XMn9NgLCj5hE11DyiJuiaJ8AjBFrVcdUs0ykNd7VpcHLeO2csndTY7Tb13DPv0O5W//VWow24gJpH1FDziJpga/7QeCrzzj4IFN+8xi4nvN8+c4qrZ/SZPsyyxJLtXCKm8ZS/20iA4FHziBpqHlETXM0zAo+QaNCHQyn1t+91wchwolv9PgocCC9qHlFDzSNqgqt5RuARPumkxv74pb6ZG9Gs51trXM3tbfrNb3+peG32GzuyYWQGoUXNI2qoeURNgWueAI/IoGNH1FDziBpqHlHBFBoAAADAIQR4AAAAwCEEeAAAAMAhBHgAAADAIQR4AAAAwCEEeAAAAMAhBHgAAADAIQR4AAAAwCEEeAAAAMAhBHgAAADAIQR4AAAAwCEEeAAAAMAhBHgAAADAIYckvbMPAgAAAAinQ+OpDAEekXAuEdN4KmMfBsoWNY+ooeYRFUyhAQAAABxCgAcAAAAcQoAHAAAAHEKABwAAABxCgAcAAAAcQoAHAAAAHEKABwAAABxCgAcAAAAcQoAHAAAAHEKABwAAABxCgAcAAAAcQoAHAAAAHEKABwAAABxCgAcAAAAcQoAHAAAAHEKABwAAABxCgEcIzSszOaTBy23qS8R0znj0XW7T4MOkMmn7PUCZSCc1drttu+5vJ5WxXwOUE2oekVDYbEOAR7ikh9SXSKjnk5uamJnSrPX07MyUJu5dVE9XmwYfzlvPAm7LTF5TX9dFDT+Z2j44N2e+BCgr1DwiIYBsQ4BHeExe07mumzsKe3dTmriXUN/tpP0E4J50UoOXY+r5ZMRn/QOOo+YRFQFlGwI8wiE9pL5PRjyHmq8+0PBoRuOpjcdoSv3tcc9rZp9c1OCk5xDgkHlNPVwfgZyYsZ8DyhE1jwgJMNsQ4BEC8xr7vffb6dk7GX12oVWxWuNgbYPi159p/E63cVCa+GKI+ZJwUFJjlxPqv2eOQMZ19s4D9ZzwvBAoE9Q8oiTYbEOAR+mlv9I3xkhM89WUrpwyX2A5NaD+dqM9c1OPc3xTBUJn8ksNb9V9XGevPtBw6pmunGrwvg4oF9Q8oiTgbEOAR8lN/dH8hhrXL36euzOP//ZTNRvtiW9yzxcDwqi5/VP1jz7TlQutitlPAmWImkcUBJ1tCPAosXktmQsOnGjTB+alpWxqm1Rvtufm9rzUBITOqQENpzL67Pplxf3UPOA6ah6REXy2IcCjxOb12rzEdPqXPkdkGnTUnDM580JLRhNwgb9aB8oHNY9oCD7bEOBRWuk5LRjN+rrcl5jWNehIk9me1VIeGyAAAAAEogjZhgCP0nr9wufaqDsdec+77BIAAEDJFSHbEOBRUplFs8TjOnrUaOZlSq9f28cAAACKqxjZhgAPZ8XqzHu1AQAA3OY32xDgAQAAAIcQ4AEAAACHEOARItnneu2mcHPMAAAAghBMtiHAo6T8zvUCAABwQTGyDQEeobKwOG8fymrp71NGq1lH/OxyBgAAUERBZBsCPErr6PsqyPfUE+/riH0MAACg2IqQbQjwKK3aJtUbzdk/f6WM0c4uqW+fGM2mJp/bFAMAAASoCNmGAI8Sa9DRE0Zz5oWWjGZWk19qwmg2v+d3m2IAAIAgBZ9tCPAosQZ9cNrcNnhEf3qYa67YvMa+GDHa3frNhexFDgAAUDzBZxsCPEoudqFXZ4327L2PNZY2DlgyDz/W8IxxoP1XMn9NAAAASinobEOARwi0quOqWaZTGu5q0+DkvHfOWDqpsdtt6rln3qHdrf7rrUYbAACg1ILNNofGU5l39kGg+OY1djnh/faZU1w9o8/0YZYllmznEjGNp/zdRgIEL6nBxEXPfMd8nL2T0ZVT9lEvah7hQs0jaoLLNozAIyQa9OFQSv3te10wMpzoVr+PAgdCKz2nBftYHvJZVxgIBWoekRNctiHAI0QaFL/+TOOjD9TT3q1m8w5uSVJcze2fqn80pfGhAcV9FDhQrurrst/cBJQjah5uCibbMIUGkcGlVUQNNY+ooeYRFYzAAwAAAA4hwAMAAAAOIcADAAAADiHAAwAAAA4hwAMAAAAOIcADAAAADiHAAwAAAA4hwAMAAAAOIcADAAAADiHAAwAAAA4hwAMAAAAOIcADAAAADiHAAwAAAA45JOmdfRAAAABAOB0aT2UI8IiEc4mYxlMZ+zBQtqh5RA01j6hgCg0AAADgEAI8AAAA4BACPAAAAOAQAjwAAADgEAI8AAAA4BACPAAAAOAQAjwAAADgEAI8AAAA4BACPAAAAOAQAjwAAADgEAI8AAAA4BACPAAAAOAQAjwAAADgEAI8AAAA4BACPAAAAOAQAjwAAADgEAI8wi2d1NjtNp1LxNYft5PK2K8BnDevzOSQBi+3qW+z1jcefZfbNPgwqUzafg9QJujnEQmF7ecJ8AitzOQ19XVd1PCTqe2Dc3PmSwD3pYfUl0io55ObmpiZ0qz19OzMlCbuXVRPV5sGH85bzwJuo59HJATQzxPgET7ppAYvx9TzyciOIgfKyuQ1neu66bPOpzRxL6G+20n7CcA99POIioD6eQI8QmReUw/XR2MmZuzngDKTHlLfJyOeQ81XH2h4NKPx1MZjNKX+9rjnNbNPLmpw0nMIcAj9PCIkwH6eAI+QSGrsckL998zRmLjO3nmgnhOeFwJlYF5jv/eOyJy9k9FnF1oVqzUO1jYofv2Zxu90GweliS+GmCMMB9HPI0qC7ecJ8AiHyS81vDUaE9fZqw80nHqmK6cavK8DykH6K31jjD42X03pyinzBZZTA+pvN9ozN/U4x+gMEDr084iSgPt5AjxCpbn9U/WPPtOVC62K2U8CZWLqj+aoTFy/+HnuABP/7adqNtoT3+SeIwmEEf08oiDofp4Aj3A4NaDhVEafXb+suHlpCSg781oyF9k40aYP/NR8bZPqzfbc3J6XV4HQoZ9HZATfzxPgERqMxCAa5vXavKx6+pc+a79BR815wjMvtGQ0ARf4q3XAdcH38wR4ACim9JwWjGZ9Xe7LqusadKTJbM9qKY9NPwAARVKEfp4ADwDF9PqFz/WAdzrynnepMQBACBWhnyfAA0ARZRbNbj2uo0eNZl6m9Pq1fQwAUGrF6OcJ8ADgiFiduT4BAKDc+O3nCfAAAACAQwjwAAAAgEMI8ABQMtnnN+6mcPMqAQDFEUw/T4AHgCLyO78RAOCmYvTzBHgAKKGFxXn7UFZLf58yWs064mdnPwBASQXRzxPgAaCYjr6vgozNnHhfR+xjAIDSK0I/T4AHgGKqbVK90Zz981fKGO3skvr2idFsavK5NTcAoKiK0M8T4AGgqBp09ITRnHmhJaOZ1eSXmjCaze/53ZobAFBcwffzBHgAKKoGfXDa3Cp7RH96mGt+5LzGvhgx2t36zYXsHTsAoJSC7+cJ8ABQZLELvTprtGfvfayxtHHAknn4sYZnjAPtv5L50QAACJeg+3kCPAAUXas6rppd85SGu9o0ODnvnSeZTmrsdpt67pmrEnSr/3qr0QYAhE+w/fyh8VTmnX0QKL6kBhMXPXO/8nH2TkZXTtlHvc4lYhpP+buNBAjevMYuJ7wjLjnF1TP6TB9mWVbMRs0jXOjnETXB9fOMwCMc0nNasI/lIZ81VoFwaNCHQyn1t+91kdRwolv9Pjp1ILTo5xE5wfXzBHiUhfq67Dd6AOHVoPj1ZxoffaCe9m41m6sWSJLiam7/VP2jKY0PDSjuo1MHyhX9PNwUTD/PFBpEBpdWETXUPKKGmkdUMAIPAAAAOIQADwAAADiEAA8AAAA4hAAPAAAAOIQADwAAADiEAA8AAAA4hAAPAAAAOIQADwAAADiEAA8AAAA4hAAPAAAAOIQADwAAADiEAA8AAAA4hAAPAAAAOOSQpHf2QQAAAADhdGg8lSHAIxLOJWIaT2Xsw0DZouYRNdQ8ooIpNAAAAIBDCPAAAACAQwjwAAAAgEMI8AAAAIBDCPAAAACAQwjwAAAAgEMI8AAAAIBDCPAAAACAQwjwAAAAgEMI8AAAAIBDCPAAAACAQwjwAAAAgEMI8AAAAIBDCPAAAACAQwjwAAAAgEMI8AAAAIBDCPAIt3RSY7fbdC4RW3/cTipjvwYoJ9Q8ImFemckhDV5uU99mrW88+i63afBhUpm0/R6gTBSgnyfAI7Qyk9fU13VRw0+mtg/OzZkvAcoKNY9ISA+pL5FQzyc3NTEzpVnr6dmZKU3cu6ierjYNPpy3ngXcVqh+ngCP8EknNXg5pp5PRnZ07EBZouYRFZPXdK7rps86n9LEvYT6biftJwD3FLifJ8AjROY19XD9m+nEjP0cUI6oeURIekh9n4x4DjVffaDh0YzGUxuP0ZT62+Oe18w+uajBSc8hwCHB9PMEeIREUmOXE+q/Z34zjevsnQfqOeF5IVAmqHlEybzGfu8deT97J6PPLrQqVmscrG1Q/Pozjd/pNg5KE18M5T1HGCi94Pp5AjzCYfJLDW99M43r7NUHGk4905VTDd7XAeWCmkeUpL/SN8boY/PVlK6cMl9gOTWg/najPXNTjxmFh2sC7OcJ8AiV5vZP1T/6TFcutCpmPwmUIWoeUTD1R3P0Pa5f/Dx3gIn/9lM1G+2Jb5gLDzcF0c8T4BEOpwY0nMros+uXFTcvpwLlippHZMxryVxk40SbPvBT87VNqjfbc3NMo4FbAuznCfAIjUJ9KwVcQc0jGub12pw+c/qXPmu/QUfNecIzL7RkNAEX+Kv1/BHgAQBAcNJzWjCa9XW5p8+sa9CRJrM9qyU2dwIkAjwAAAjU6xf7Xvf6yHveJSUBrCPAAwCAwGQWzfge19GjRjMvU3r92j4GRBMBHgAAhFKszlyHBsAmAjwAAADgEAI8AAAA4BACPAAAKJL85rEXbv48UF4I8AAAIDDMYwcKjwAPAACKZmFx3j6U1dLfp4xWs44UeDdLwFUEeAAAEJyj76sgY/An3tcR+xgQUQR4AAAQnNom1RvN2T9/pYzRzi6pb58YzaamwLalB1xDgAcAAAFq0NETRnPmhZaMZlaTX2rCaDa/12C0gGgjwAMAgAA16IPTcaM9oj89zDUPfl5jX4wY7W795gIBHthEgAcAAIGKXejVWaM9e+9jjaWNA5bMw481PGMcaP+VzK8AQNQR4AEAQMBa1XHVjOBTGu5q0+DkvHc+fDqpsdtt6rlnrj7Trf7rrUYbwKHxVOadfRAovqQGExc98x3zcfZORldO2Ue9ziViGk/5u3UKCB41j6iZ19jlhHdkPae4ekaf6UOfy0dS8wiX4Pp5RuARDuk5LdjH8pDPusJAKFDziJwGfTiUUn+7z8kwJ7rVn0d4B0InwH6eAI+yUF/HzU2IFmoebmpQ/PozjY8+UE97t5rN1WkkSXE1t3+q/tGUxocGFCe8I8L26ueZQoPI4NIqooaaR9RQ84gKRuABAAAAhxDgAQAAAIcQ4AEAAACHEOABAAAAhxDgAQAAAIcQ4AEAAACHEOABAAAAhxDgAQAAAIcQ4AEAAACHEOABAAAAhxDgAQAAAIf8f1CEZmyxV1QlAAAAAElFTkSuQmCC;" parent="1" vertex="1">
                    <mxGeometry x="670" y="149.47" width="412" height="160.53" as="geometry"/>
                </mxCell>
            </root>
        </mxGraphModel>
    </diagram>
</mxfile>